<svg width="75" height="74" viewBox="0 0 75 74" fill="none" xmlns="http://www.w3.org/2000/svg">
    <path d="M29.9449 50.0964H10.4522V53.0508L13.9204 58.8787V58.9596H13.9692H17.0996H29.9449V61.914H19.1548V64.8685L22.6719 70.7773H22.6845H25.8023H32.8993V67.8229H24.0207L22.2377 64.8685H29.9449H32.8993V61.914V58.9596V56.0052H29.9449H15.318L13.535 53.0508H29.9449H32.8993V50.0964V47.142V44.1876H29.9449H6.07777L4.29479 41.2331H29.9449H32.8993V38.2787V35.3243V32.3699H29.9449H3.13034L4.88959 29.4155H29.9449H32.8993V26.4611V23.5067V20.5522H29.9449H7.89985L9.6577 17.5992H29.9449H32.8993V14.6448V11.6904V8.73598H29.9449H21.6764L23.4343 5.78156H32.8993V2.82715H25.1921H22.1092L18.5447 8.73598V11.6904H29.9449V14.6448H11.4155H8.33268L4.76811 20.5522V23.5067H29.9449V26.4611H6.64743H3.61204H3.56457L0 32.3699V35.3243H29.9449V38.2787H1.21192V41.2331L4.72902 47.142H4.76811H7.85936H29.9449V50.0964Z" fill="black" class="svg-elem-1"></path>
    <path d="M70.3683 41.2809C72.8424 41.2809 74.8474 39.276 74.8474 36.8018C74.8474 34.3277 72.8424 32.3228 70.3683 32.3228C68.4122 32.3228 66.7549 33.578 66.1433 35.3246H35.9346V38.2791H66.1433C66.7549 40.0257 68.4122 41.2809 70.3683 41.2809ZM70.3683 35.3093C71.1921 35.3093 71.8609 35.9781 71.8609 36.8018C71.8609 37.6256 71.1921 38.2944 70.3683 38.2944C69.5445 38.2944 68.8757 37.6256 68.8757 36.8018C68.8757 35.9781 69.5445 35.3093 70.3683 35.3093Z" fill="black" class="svg-elem-2"></path>
    <path d="M56.9408 26.425L57.0092 26.4627L61.082 24.0054C61.8485 24.6169 62.8175 24.9855 63.8731 24.9855C66.3472 24.9855 68.3522 22.9806 68.3522 20.5064C68.3522 18.0323 66.3472 16.0273 63.8731 16.0273C61.3989 16.0273 59.394 18.0323 59.394 20.5064C59.394 20.956 59.4624 21.3903 59.5853 21.7993L57.0092 23.3324L56.6643 23.5097H35.9346V26.4641H56.9408V26.4264V26.425ZM63.8731 19.0139C64.6968 19.0139 65.3656 19.6827 65.3656 20.5064C65.3656 21.3302 64.6968 21.999 63.8731 21.999C63.0493 21.999 62.3805 21.3302 62.3805 20.5064C62.3805 19.6827 63.0493 19.0139 63.8731 19.0139Z" fill="black" class="svg-elem-3"></path>
    <path d="M68.3522 53.1252C68.3522 50.6511 66.3472 48.6462 63.8731 48.6462C62.8161 48.6462 61.8471 49.0134 61.082 49.6263L57.0092 47.1689L56.9408 47.2066V47.1689H35.9346V50.1234H56.6643L57.0092 50.3007L59.5853 51.8337C59.4624 52.2428 59.394 52.6771 59.394 53.1266C59.394 55.6008 61.3989 57.6057 63.8731 57.6057C66.3472 57.6057 68.3522 55.6008 68.3522 53.1266V53.1252ZM63.8731 54.6178C63.0493 54.6178 62.3805 53.949 62.3805 53.1252C62.3805 52.3015 63.0493 51.6327 63.8731 51.6327C64.6968 51.6327 65.3656 52.3015 65.3656 53.1252C65.3656 53.949 64.6968 54.6178 63.8731 54.6178Z" fill="black" class="svg-elem-4"></path>
    <path d="M55.1341 69.5211C55.1341 67.047 53.1291 65.042 50.655 65.042C48.6989 65.042 47.0416 66.2972 46.43 68.0439H35.9346V70.9983H46.43C47.0416 72.745 48.6989 74.0002 50.655 74.0002C53.1291 74.0002 55.1341 71.9952 55.1341 69.5211ZM49.1624 69.5211C49.1624 68.6973 49.8312 68.0285 50.655 68.0285C51.4788 68.0285 52.1476 68.6973 52.1476 69.5211C52.1476 70.3449 51.4788 71.0137 50.655 71.0137C49.8312 71.0137 49.1624 70.3449 49.1624 69.5211Z" fill="black" class="svg-elem-5"></path>
    <path d="M50.641 8.95819C53.1151 8.95819 55.1201 6.95321 55.1201 4.47909C55.1201 2.00498 53.1151 0 50.641 0C48.6849 0 47.0276 1.25521 46.416 3.00189H35.9346V5.9563H46.416C47.0276 7.70298 48.6849 8.95819 50.641 8.95819ZM50.641 2.98653C51.4648 2.98653 52.1336 3.65532 52.1336 4.47909C52.1336 5.30287 51.4648 5.97166 50.641 5.97166C49.8173 5.97166 49.1485 5.30287 49.1485 4.47909C49.1485 3.65532 49.8173 2.98653 50.641 2.98653Z" fill="black" class="svg-elem-6"></path>
    <path d="M56.9408 53.043H35.9346V55.9974H56.9408V53.043Z" fill="black" class="svg-elem-7"></path>
    <path d="M46.437 58.9473H35.9346V62.153H46.437V58.9473Z" fill="black" class="svg-elem-8"></path>
    <path d="M56.9408 17.5352H35.9346V20.6599H56.9408V17.5352Z" fill="black" class="svg-elem-9"></path>
    <path d="M65.3656 29.4155H35.9346V32.3699H65.3656V29.4155Z" fill="black" class="svg-elem-10"></path>
    <path d="M65.8892 41.2471H35.9346V44.2015H65.8892V41.2471Z" fill="black" class="svg-elem-11"></path>
    <path d="M46.437 10.269H35.9346V13.2235H46.437V10.269Z" fill="black" class="svg-elem-12"></path>
</svg>
